<svg xmlns="http://www.w3.org/2000/svg" viewBox="0 0 914.77 1702.94">
  <g id="Layer_2" data-name="Layer 2">
    <g id="base">
      <rect x="1.5" y="1.5" width="403.56" height="403.56" fill="#e1e8ed"/>
      <rect x="1.5" y="1.5" width="12.76" height="12.76" fill="#1bc8ff"/>
      <text transform="translate(1.5 460.35)" font-size="46.62" fill="#aab8c2" font-family="Sole24Sans-Regular, Sole24Sans">a<tspan x="23.59" y="0" letter-spacing="-0.01em">g</tspan><tspan x="48.25" y="0">o</tspan><tspan x="74.41" y="0" letter-spacing="0em">s</tspan><tspan x="97.3" y="0" letter-spacing="0em">t</tspan><tspan x="114.64" y="0">o 2020</tspan></text>
      <rect x="499.45" y="1.5" width="403.56" height="403.56" fill="#e1e8ed"/>
      <rect x="499.45" y="1.5" width="36.1" height="36.1" fill="#1bc8ff"/>
      <text transform="translate(499.46 460.35)" font-size="46.62" fill="#aab8c2" font-family="Sole24Sans-Regular, Sole24Sans">s<tspan x="23.08" y="0" letter-spacing="0em">e</tspan><tspan x="47.13" y="0">t</tspan><tspan x="64.71" y="0" letter-spacing="0em">t</tspan><tspan x="82.05" y="0" letter-spacing="0em">emb</tspan><tspan x="172.27" y="0" letter-spacing="-0.01em">r</tspan><tspan x="188.49" y="0">e 2020</tspan></text>
      <rect x="1.5" y="505.97" width="403.56" height="403.56" fill="#e1e8ed"/>
      <rect x="1.5" y="505.97" width="22.1" height="22.1" fill="#1bc8ff"/>
      <text transform="translate(1.5 964.82)" font-size="46.62" fill="#aab8c2" font-family="Sole24Sans-Regular, Sole24Sans"><tspan letter-spacing="-0.01em">o</tspan><tspan x="25.83" y="0">t</tspan><tspan x="43.4" y="0" letter-spacing="0em">t</tspan><tspan x="60.75" y="0">ob</tspan><tspan x="113.52" y="0" letter-spacing="-0.01em">r</tspan><tspan x="129.75" y="0" letter-spacing="0em">e 2020</tspan></text>
      <rect x="499.45" y="505.97" width="403.56" height="403.56" fill="#e1e8ed"/>
      <rect x="499.45" y="505.97" width="193.54" height="193.54" fill="#1bc8ff"/>
      <text transform="translate(499.46 964.82)" font-size="46.62" fill="#aab8c2" font-family="Sole24Sans-Regular, Sole24Sans">n<tspan x="26.34" y="0" letter-spacing="-0.01em">ov</tspan><tspan x="74.41" y="0" letter-spacing="0em">emb</tspan><tspan x="164.62" y="0" letter-spacing="-0.01em">r</tspan><tspan x="180.84" y="0">e 2020</tspan></text>
      <rect x="1.5" y="1010.44" width="403.56" height="403.56" fill="#e1e8ed"/>
      <rect x="1.5" y="1010.44" width="221.04" height="221.04" fill="#1bc8ff"/>
      <text transform="translate(1.5 1469.29)" font-size="46.62" fill="#aab8c2" font-family="Sole24Sans-Regular, Sole24Sans">dicemb<tspan x="150.68" y="0" letter-spacing="-0.01em">r</tspan><tspan x="166.9" y="0">e 2020</tspan></text>
      <rect x="499.45" y="1010.44" width="403.56" height="403.56" fill="#e1e8ed"/>
      <rect x="499.45" y="1010.44" width="213.54" height="213.54" fill="#1bc8ff"/>
      <text transform="translate(499.46 1469.29)" font-size="46.62" fill="#aab8c2" font-family="Sole24Sans-Regular, Sole24Sans"><tspan letter-spacing="-0.01em">g</tspan><tspan x="24.66" y="0">ennaio 2021*</tspan></text>
      <text transform="translate(1.5 1646.19)" font-size="38.29" fill="#aab8c2" font-family="Sole24Sans-Light, Sole24Sans" font-weight="300">* il mese di <tspan x="189.59" y="0" letter-spacing="-0.01em">g</tspan><tspan x="208.7" y="0" letter-spacing="0em">ennaio</tspan><tspan x="318.22" y="0" letter-spacing="-0.02em"> </tspan><tspan x="327.18" y="0">viene conside</tspan><tspan x="550.55" y="0" letter-spacing="-0.02em">r</tspan><tspan x="562.88" y="0">a</tspan><tspan x="581.68" y="0" letter-spacing="0em">t</tspan><tspan x="594.39" y="0">o fino al giorno 8,</tspan><tspan x="0" y="45.95">dat</tspan><tspan x="52.88" y="45.95" letter-spacing="-0.01em">a</tspan><tspan x="71.19" y="45.95" xml:space="preserve"> di sospensione dell</tspan><tspan x="394.77" y="45.95" letter-spacing="-0.02em">’</tspan><tspan x="401.36" y="45.95">account.</tspan></text>
    </g>
    <g id="agoActive">
      <polygon points="405.06 14.82 405.06 405.06 14.82 405.06 14.82 418.38 418.38 418.38 418.38 14.82 405.06 14.82" fill="#aab8c2"/>
      <text transform="translate(32.5 184.71)" font-size="106.56" fill="#657786" font-family="Sole24Sans-Bold, Sole24Sans" font-weight="700">0,1%<tspan font-size="59.94" font-family="Sole24Sans-Medium, Sole24Sans" font-weight="500"><tspan x="0" y="59.94">t</tspan><tspan x="23.5" y="59.94" letter-spacing="-0.01em">w</tspan><tspan x="66.18" y="59.94">e</tspan><tspan x="97.83" y="59.94" letter-spacing="0em">e</tspan><tspan x="129.18" y="59.94">ts: 1121</tspan><tspan x="0" y="119.88">fla</tspan><tspan x="68.75" y="119.88" letter-spacing="0em">g</tspan><tspan x="101.72" y="119.88">s: 1</tspan></tspan></text>
      <rect x="1.5" y="1.5" width="403.56" height="403.56" fill="none" stroke="#657786" stroke-miterlimit="10" stroke-width="3"/>
    </g>
    <g id="settActive">
      <polygon points="901.45 14.82 901.45 405.06 511.22 405.06 511.22 418.38 914.77 418.38 914.77 14.82 901.45 14.82" fill="#aab8c2"/>
      <rect x="499.45" y="1.5" width="403.56" height="403.56" fill="none" stroke="#657786" stroke-miterlimit="10" stroke-width="3"/>
      <text transform="translate(530.46 184.71)" font-size="106.56" fill="#657786" font-family="Sole24Sans-Bold, Sole24Sans" font-weight="700">0,8%<tspan font-size="59.94" font-family="Sole24Sans-Medium, Sole24Sans" font-weight="500"><tspan x="0" y="59.94">t</tspan><tspan x="23.5" y="59.94" letter-spacing="-0.01em">w</tspan><tspan x="66.18" y="59.94">e</tspan><tspan x="97.83" y="59.94" letter-spacing="0em">e</tspan><tspan x="129.18" y="59.94">ts: 1363</tspan><tspan x="0" y="119.88">fla</tspan><tspan x="68.75" y="119.88" letter-spacing="0em">g</tspan><tspan x="101.72" y="119.88">s: 11</tspan></tspan></text>
    </g>
    <g id="ottActive">
      <polygon points="405.06 519.27 405.06 909.5 14.82 909.5 14.82 922.82 418.38 922.82 418.38 519.27 405.06 519.27" fill="#aab8c2"/>
      <rect x="1.5" y="505.97" width="403.56" height="403.56" fill="none" stroke="#657786" stroke-miterlimit="10" stroke-width="3"/>
      <text transform="translate(32.5 689.18)" font-size="106.56" fill="#657786" font-family="Sole24Sans-Bold, Sole24Sans" font-weight="700">0,3%<tspan font-size="59.94" font-family="Sole24Sans-Medium, Sole24Sans" font-weight="500"><tspan x="0" y="59.94">t</tspan><tspan x="23.5" y="59.94" letter-spacing="-0.01em">w</tspan><tspan x="66.18" y="59.94">e</tspan><tspan x="97.83" y="59.94" letter-spacing="0em">e</tspan><tspan x="129.18" y="59.94">ts: 1415</tspan><tspan x="0" y="119.88">fla</tspan><tspan x="68.75" y="119.88" letter-spacing="0em">g</tspan><tspan x="101.72" y="119.88">s: 4</tspan></tspan></text>
    </g>
    <g id="novActive">
      <polygon points="901.45 519.27 901.45 909.5 511.22 909.5 511.22 922.82 914.77 922.82 914.77 519.27 901.45 519.27" fill="#aab8c2"/>
      <rect x="499.45" y="505.97" width="403.56" height="403.56" fill="none" stroke="#657786" stroke-miterlimit="10" stroke-width="3"/>
      <text transform="translate(530.46 689.18)" font-size="106.56" fill="#657786" font-family="Sole24Sans-Bold, Sole24Sans" font-weight="700">23%<tspan font-size="59.94" font-family="Sole24Sans-Medium, Sole24Sans" font-weight="500"><tspan x="0" y="59.94">t</tspan><tspan x="23.5" y="59.94" letter-spacing="-0.01em">w</tspan><tspan x="66.18" y="59.94">e</tspan><tspan x="97.83" y="59.94" letter-spacing="0em">e</tspan><tspan x="129.18" y="59.94">ts: 912</tspan><tspan x="0" y="119.88">fla</tspan><tspan x="68.75" y="119.88" letter-spacing="0em">g</tspan><tspan x="101.72" y="119.88">s: 209</tspan></tspan></text>
    </g>
    <g id="dicActive">
      <polygon points="405.06 1023.73 405.06 1413.96 14.82 1413.96 14.82 1427.28 418.38 1427.28 418.38 1023.73 405.06 1023.73" fill="#aab8c2"/>
      <rect x="1.5" y="1010.44" width="403.56" height="403.56" fill="none" stroke="#657786" stroke-miterlimit="10" stroke-width="3"/>
      <text transform="translate(32.5 1193.65)" font-size="106.56" fill="#657786" font-family="Sole24Sans-Bold, Sole24Sans" font-weight="700">31%<tspan font-size="59.94" font-family="Sole24Sans-Medium, Sole24Sans" font-weight="500"><tspan x="0" y="59.94">t</tspan><tspan x="23.5" y="59.94" letter-spacing="-0.01em">w</tspan><tspan x="66.18" y="59.94">e</tspan><tspan x="97.83" y="59.94" letter-spacing="0em">e</tspan><tspan x="129.18" y="59.94">ts: 643</tspan><tspan x="0" y="119.88">fla</tspan><tspan x="68.75" y="119.88" letter-spacing="0em">g</tspan><tspan x="101.72" y="119.88">s: 197</tspan></tspan></text>
    </g>
    <g id="genActive">
      <polygon points="901.45 1023.73 901.45 1413.96 511.22 1413.96 511.22 1427.28 914.77 1427.28 914.77 1023.73 901.45 1023.73" fill="#aab8c2"/>
      <rect x="499.45" y="1010.44" width="403.56" height="403.56" fill="none" stroke="#657786" stroke-miterlimit="10" stroke-width="3"/>
      <text transform="translate(530.46 1193.65)" font-size="106.56" fill="#657786" font-family="Sole24Sans-Bold, Sole24Sans" font-weight="700">28%<tspan font-size="59.94" font-family="Sole24Sans-Medium, Sole24Sans" font-weight="500"><tspan x="0" y="59.94">t</tspan><tspan x="23.5" y="59.94" letter-spacing="-0.01em">w</tspan><tspan x="66.18" y="59.94">e</tspan><tspan x="97.83" y="59.94" letter-spacing="0em">e</tspan><tspan x="129.18" y="59.94">ts: 156</tspan><tspan x="0" y="119.88">fla</tspan><tspan x="68.75" y="119.88" letter-spacing="0em">g</tspan><tspan x="101.72" y="119.88">s: 43</tspan></tspan></text>
    </g>
  </g>
</svg>
