<svg xmlns="http://www.w3.org/2000/svg" viewBox="0 0 1429.52 1142.58">
  <g id="Layer_2" data-name="Layer 2">
    <g id="baseDesk">
      <rect x="1.5" y="1.5" width="403.56" height="403.56" fill="#e1e8ed"/>
      <rect x="1.5" y="1.5" width="12.76" height="12.76" fill="#1bc8ff"/>
      <text transform="translate(1.5 460.35)" font-size="46.62" fill="#aab8c2" font-family="Sole24Sans-Regular, Sole24Sans">a<tspan x="23.59" y="0" letter-spacing="-0.01em">g</tspan><tspan x="48.25" y="0">o</tspan><tspan x="74.41" y="0" letter-spacing="0em">s</tspan><tspan x="97.3" y="0" letter-spacing="0em">t</tspan><tspan x="114.64" y="0">o 2020</tspan></text>
      <rect x="499.45" y="1.5" width="403.56" height="403.56" fill="#e1e8ed"/>
      <rect x="499.45" y="1.5" width="36.1" height="36.1" fill="#1bc8ff"/>
      <text transform="translate(499.46 460.35)" font-size="46.62" fill="#aab8c2" font-family="Sole24Sans-Regular, Sole24Sans">s<tspan x="23.08" y="0" letter-spacing="0em">e</tspan><tspan x="47.13" y="0">t</tspan><tspan x="64.71" y="0" letter-spacing="0em">t</tspan><tspan x="82.05" y="0" letter-spacing="0em">emb</tspan><tspan x="172.27" y="0" letter-spacing="-0.01em">r</tspan><tspan x="188.49" y="0">e 2020</tspan></text>
      <text transform="translate(1.5 1085.83)" font-size="38.29" fill="#aab8c2" font-family="Sole24Sans-Light, Sole24Sans" font-weight="300">* il mese di <tspan x="189.59" y="0" letter-spacing="-0.01em">g</tspan><tspan x="208.7" y="0">ennaio</tspan><tspan x="318.22" y="0" letter-spacing="-0.02em"> </tspan><tspan x="327.18" y="0">viene conside</tspan><tspan x="550.55" y="0" letter-spacing="-0.02em">r</tspan><tspan x="562.88" y="0">a</tspan><tspan x="581.69" y="0" letter-spacing="0em">t</tspan><tspan x="594.4" y="0">o fino al giorno 8, dat</tspan><tspan x="940.46" y="0" letter-spacing="-0.01em">a</tspan><tspan x="958.77" y="0" xml:space="preserve"> di sospensione dell</tspan><tspan x="1282.35" y="0" letter-spacing="-0.02em">’</tspan><tspan x="1288.94" y="0">account.</tspan></text>
      <rect x="997.41" y="1.5" width="403.56" height="403.56" fill="#e1e8ed"/>
      <rect x="997.41" y="1.5" width="22.1" height="22.1" fill="#1bc8ff"/>
      <text transform="translate(997.41 460.35)" font-size="46.62" fill="#aab8c2" font-family="Sole24Sans-Regular, Sole24Sans"><tspan letter-spacing="-0.01em">o</tspan><tspan x="25.83" y="0">t</tspan><tspan x="43.4" y="0" letter-spacing="0em">t</tspan><tspan x="60.75" y="0">ob</tspan><tspan x="113.52" y="0" letter-spacing="-0.01em">r</tspan><tspan x="129.75" y="0" letter-spacing="0em">e 2020</tspan></text>
      <rect x="1.5" y="505.97" width="403.56" height="403.56" fill="#e1e8ed"/>
      <rect x="1.5" y="505.97" width="193.54" height="193.54" fill="#1bc8ff"/>
      <text transform="translate(1.5 964.82)" font-size="46.62" fill="#aab8c2" font-family="Sole24Sans-Regular, Sole24Sans">n<tspan x="26.34" y="0" letter-spacing="-0.01em">ov</tspan><tspan x="74.41" y="0" letter-spacing="0em">emb</tspan><tspan x="164.62" y="0" letter-spacing="-0.01em">r</tspan><tspan x="180.84" y="0">e 2020</tspan></text>
      <rect x="499.45" y="505.97" width="403.56" height="403.56" fill="#e1e8ed"/>
      <rect x="499.45" y="505.97" width="221.04" height="221.04" fill="#1bc8ff"/>
      <text transform="translate(499.45 964.82)" font-size="46.62" fill="#aab8c2" font-family="Sole24Sans-Regular, Sole24Sans">dicemb<tspan x="150.68" y="0" letter-spacing="-0.01em">r</tspan><tspan x="166.9" y="0">e 2020</tspan></text>
      <rect x="998.97" y="505.97" width="403.56" height="403.56" fill="#e1e8ed"/>
      <rect x="998.97" y="505.97" width="213.54" height="213.54" fill="#1bc8ff"/>
      <text transform="translate(998.97 964.82)" font-size="46.62" fill="#aab8c2" font-family="Sole24Sans-Regular, Sole24Sans"><tspan letter-spacing="-0.01em">g</tspan><tspan x="24.66" y="0">ennaio 2021*</tspan></text>
    </g>
    <g id="agoActiveDesk">
      <polygon points="405.06 14.82 405.06 405.06 14.82 405.06 14.82 418.38 418.38 418.38 418.38 14.82 405.06 14.82" fill="#aab8c2"/>
      <text transform="translate(32.5 184.71)" font-size="106.56" fill="#657786" font-family="Sole24Sans-Bold, Sole24Sans" font-weight="700">0,1%<tspan font-size="59.94" font-family="Sole24Sans-Medium, Sole24Sans" font-weight="500"><tspan x="0" y="59.94">t</tspan><tspan x="23.5" y="59.94" letter-spacing="-0.01em">w</tspan><tspan x="66.18" y="59.94">e</tspan><tspan x="97.83" y="59.94" letter-spacing="0em">e</tspan><tspan x="129.18" y="59.94">ts: 1121</tspan><tspan x="0" y="119.88">fla</tspan><tspan x="68.75" y="119.88" letter-spacing="0em">g</tspan><tspan x="101.72" y="119.88">s: 1</tspan></tspan></text>
      <rect x="1.5" y="1.5" width="403.56" height="403.56" fill="none" stroke="#657786" stroke-miterlimit="10" stroke-width="3"/>
    </g>
    <g id="settActiveDesk">
      <polygon points="901.45 14.82 901.45 405.06 511.22 405.06 511.22 418.38 914.77 418.38 914.77 14.82 901.45 14.82" fill="#aab8c2"/>
      <rect x="499.45" y="1.5" width="403.56" height="403.56" fill="none" stroke="#657786" stroke-miterlimit="10" stroke-width="3"/>
      <text transform="translate(530.46 184.71)" font-size="106.56" fill="#657786" font-family="Sole24Sans-Bold, Sole24Sans" font-weight="700">0,8%<tspan font-size="59.94" font-family="Sole24Sans-Medium, Sole24Sans" font-weight="500"><tspan x="0" y="59.94">t</tspan><tspan x="23.5" y="59.94" letter-spacing="-0.01em">w</tspan><tspan x="66.18" y="59.94">e</tspan><tspan x="97.83" y="59.94" letter-spacing="0em">e</tspan><tspan x="129.18" y="59.94">ts: 1363</tspan><tspan x="0" y="119.88">fla</tspan><tspan x="68.75" y="119.88" letter-spacing="0em">g</tspan><tspan x="101.72" y="119.88">s: 11</tspan></tspan></text>
    </g>
    <g id="ottActiveDesk">
      <polygon points="1400.97 14.79 1400.97 405.03 1010.73 405.03 1010.73 418.35 1414.29 418.35 1414.29 14.79 1400.97 14.79" fill="#aab8c2"/>
      <rect x="997.41" y="1.5" width="403.56" height="403.56" fill="none" stroke="#657786" stroke-miterlimit="10" stroke-width="3"/>
      <text transform="translate(1028.41 184.71)" font-size="106.56" fill="#657786" font-family="Sole24Sans-Bold, Sole24Sans" font-weight="700">0,3%<tspan font-size="59.94" font-family="Sole24Sans-Medium, Sole24Sans" font-weight="500"><tspan x="0" y="59.94">t</tspan><tspan x="23.5" y="59.94" letter-spacing="-0.01em">w</tspan><tspan x="66.18" y="59.94">e</tspan><tspan x="97.83" y="59.94" letter-spacing="0em">e</tspan><tspan x="129.18" y="59.94">ts: 1415</tspan><tspan x="0" y="119.88">fla</tspan><tspan x="68.75" y="119.88" letter-spacing="0em">g</tspan><tspan x="101.72" y="119.88">s: 4</tspan></tspan></text>
    </g>
    <g id="novActiveDesk">
      <polygon points="403.5 519.27 403.5 909.5 13.26 909.5 13.26 922.82 416.82 922.82 416.82 519.27 403.5 519.27" fill="#aab8c2"/>
      <rect x="1.5" y="505.97" width="403.56" height="403.56" fill="none" stroke="#657786" stroke-miterlimit="10" stroke-width="3"/>
      <text transform="translate(32.5 689.18)" font-size="106.56" fill="#657786" font-family="Sole24Sans-Bold, Sole24Sans" font-weight="700">23%<tspan font-size="59.94" font-family="Sole24Sans-Medium, Sole24Sans" font-weight="500"><tspan x="0" y="59.94">t</tspan><tspan x="23.5" y="59.94" letter-spacing="-0.01em">w</tspan><tspan x="66.18" y="59.94">e</tspan><tspan x="97.83" y="59.94" letter-spacing="0em">e</tspan><tspan x="129.18" y="59.94">ts: 912</tspan><tspan x="0" y="119.88">fla</tspan><tspan x="68.75" y="119.88" letter-spacing="0em">g</tspan><tspan x="101.72" y="119.88">s: 209</tspan></tspan></text>
    </g>
    <g id="dicActiveDesk">
      <polygon points="903.01 519.25 903.01 909.49 512.78 909.49 512.78 922.81 916.33 922.81 916.33 519.25 903.01 519.25" fill="#aab8c2"/>
      <rect x="499.45" y="505.97" width="403.56" height="403.56" fill="none" stroke="#657786" stroke-miterlimit="10" stroke-width="3"/>
      <text transform="translate(530.46 689.18)" font-size="106.56" fill="#657786" font-family="Sole24Sans-Bold, Sole24Sans" font-weight="700">31%<tspan font-size="59.94" font-family="Sole24Sans-Medium, Sole24Sans" font-weight="500"><tspan x="0" y="59.94">t</tspan><tspan x="23.5" y="59.94" letter-spacing="-0.01em">w</tspan><tspan x="66.18" y="59.94">e</tspan><tspan x="97.83" y="59.94" letter-spacing="0em">e</tspan><tspan x="129.18" y="59.94">ts: 643</tspan><tspan x="0" y="119.88">fla</tspan><tspan x="68.75" y="119.88" letter-spacing="0em">g</tspan><tspan x="101.72" y="119.88">s: 197</tspan></tspan></text>
    </g>
    <g id="genActiveDesk">
      <polygon points="1400.97 519.25 1400.97 909.49 1010.73 909.49 1010.73 922.81 1414.29 922.81 1414.29 519.25 1400.97 519.25" fill="#aab8c2"/>
      <rect x="998.97" y="505.97" width="403.56" height="403.56" fill="none" stroke="#657786" stroke-miterlimit="10" stroke-width="3"/>
      <text transform="translate(1029.97 689.18)" font-size="106.56" fill="#657786" font-family="Sole24Sans-Bold, Sole24Sans" font-weight="700">28%<tspan font-size="59.94" font-family="Sole24Sans-Medium, Sole24Sans" font-weight="500"><tspan x="0" y="59.94">t</tspan><tspan x="23.5" y="59.94" letter-spacing="-0.01em">w</tspan><tspan x="66.18" y="59.94">e</tspan><tspan x="97.83" y="59.94" letter-spacing="0em">e</tspan><tspan x="129.18" y="59.94">ts: 156</tspan><tspan x="0" y="119.88">fla</tspan><tspan x="68.75" y="119.88" letter-spacing="0em">g</tspan><tspan x="101.72" y="119.88">s: 43</tspan></tspan></text>
    </g>
  </g>
</svg>
