<svg xmlns="http://www.w3.org/2000/svg" viewBox="0 0 38.52 38.52"><title>1</title><g id="Livello_2" data-name="Livello 2"><g id="Livello_6" data-name="Livello 6"><circle cx="19.26" cy="19.26" r="16.76" style="stroke:#ef374e;stroke-miterlimit:10;stroke-width:5px"/><path d="M36.59,13.94c0-1.86-1-3.37-2.29-3.37a1.67,1.67,0,0,0-.39.06c0-.39-.09-.62-.09-.62H16.4s-.06.28-.13.84H15.13v3.66H16c0,.24-.49.42-.49.69l.47.06c0,.21,0,.41,0,.62a3.48,3.48,0,0,0-2.92-2H11.55A3.24,3.24,0,0,0,9,15.36s-.07,0-.11,0l-.06,0s0,0,.08.07a5,5,0,0,0-.45.78h0s-.07,0-.08.08h.08a.08.08,0,0,0,0,.05h0l0,0a7.17,7.17,0,0,0,.06,5.74l0,0h.06a3.63,3.63,0,0,0,3.09,2.31H13a3.65,3.65,0,0,0,3.14-2.44l.09,1h-.67c0,.46.76,1,.81,1.49h2.54s-.18,3.23-.24,3.2l-.6,4a1,1,0,0,0,.95,1.11h1.72a.37.37,0,0,0,.36.25h2.39a.39.39,0,0,0,.39-.33L25,25.36h-.7l.13-.81h9.42A25.86,25.86,0,0,0,34.36,20c0-.9,0-1.79,0-2.66C35.61,17.23,36.59,15.76,36.59,13.94Z" style="fill:#9c5c9c;stroke:#000;stroke-miterlimit:10;stroke-width:0.5px"/><path d="M8.94,14.63s.06-.06,0-.1a.12.12,0,0,0-.13,0l0,.07C8.83,14.65,8.88,14.64,8.94,14.63Z" style="fill:#9c5c9c;stroke:#000;stroke-miterlimit:10;stroke-width:0.5px"/><path d="M8.36,15.39c-.11,0-.11.06-.15.11s.06.07.12,0S8.37,15.44,8.36,15.39Z" style="fill:#9c5c9c;stroke:#000;stroke-miterlimit:10;stroke-width:0.5px"/><ellipse cx="32.98" cy="12.42" rx="2.29" ry="3.37" style="fill:#f7e2bf;stroke:#000;stroke-miterlimit:10;stroke-width:0.5px"/><path d="M26.24,11.06c0,.37.06.76.08,1.17h0c0,.38,0,.77,0,1.17h0c0,.54,0,1.1,0,1.66h6.68a62.28,62.28,0,0,0-.55-6.57h-6.9a4.82,4.82,0,0,1,.63,2.57Z" style="fill:#fff9e7;stroke:#000;stroke-linecap:round;stroke-linejoin:round;stroke-width:0.5px"/><path d="M18.1,21.38l.22-.12A4.21,4.21,0,0,0,20,17.67c0-2.17-1.24-3.92-2.77-3.92H14.64c0,.2,0,.4,0,.62a6.64,6.64,0,0,1,.82,3.3,7,7,0,0,1-.59,2.87c0,.35.05.7.09,1.06h2.24A2,2,0,0,0,18.1,21.38Z" style="stroke:#000;stroke-miterlimit:10;stroke-width:0.5px"/><path d="M33.06,15.06H26.38c0,1.14,0,2.3-.1,3.38h6.77C33.1,17.29,33.1,16.15,33.06,15.06Z" style="fill:#f7e2bf;stroke:#000;stroke-miterlimit:10;stroke-width:0.5px"/><path d="M25.79,23h6.72a27.86,27.86,0,0,0,.54-4.59H26.28A28.67,28.67,0,0,1,25.79,23Z" style="fill:#fff9e7;stroke:#000;stroke-miterlimit:10;stroke-width:0.5px"/><path d="M21.74,22.12c0-.25.07-.54.1-.86.41-3.89.54-11.92-.46-12.77H15.09s-.06.28-.14.84h6.24V13H14.67c0,.24-.49.43-.5.69l3,.07c1.53,0,2.77,1.75,2.77,3.92a4.21,4.21,0,0,1-1.64,3.59.94.94,0,0,1-.22.12,2,2,0,0,1-.91.22l-2.92-.06c.05.46.76,1,.82,1.49h2.53s-.18,3.23-.24,3.2l-.6,4a1,1,0,0,0,1,1.11h1.71a.4.4,0,0,1,0-.19l1-7.28H23l.12-.82Z" style="fill:#fff9e7;stroke:#000;stroke-miterlimit:10;stroke-width:0.5px"/><path d="M26.36,13.4c0-.4,0-.79,0-1.17s0-.8-.08-1.17a4.82,4.82,0,0,0-.63-2.57H21.38c1,.85.87,8.88.46,12.77A11.72,11.72,0,0,1,21.56,23h4.23a28.67,28.67,0,0,0,.49-4.59c.06-1.08.09-2.24.1-3.38C26.38,14.5,26.38,13.94,26.36,13.4Z" style="fill:#f7e2bf;stroke:#000;stroke-miterlimit:10;stroke-width:0.5px"/><path d="M19.42,23h-.24l-.12.8-.42,2.81a.41.41,0,0,0,.18.39.47.47,0,0,0,.21.06h1.32a.39.39,0,0,0,.38-.33l.44-2.93.12-.8Z" style="stroke:#000;stroke-miterlimit:10;stroke-width:0.5px"/><path d="M15,9.33H13.81V13h7.38V9.33Z" style="fill:#f7e2bf;stroke:#000;stroke-miterlimit:10;stroke-width:0.5px"/><path d="M10.47,15.32a2.25,2.25,0,0,1,1.86-1.19,1.72,1.72,0,0,1,.8.2,3.46,3.46,0,0,0-2.9-2c-2.06,0-3.74,2.37-3.74,5.3S8.17,23,10.23,23a3.48,3.48,0,0,0,2.94-2,1.78,1.78,0,0,1-.84.22c-1.37,0-2.48-1.57-2.48-3.51a4.2,4.2,0,0,1,.62-2.33" style="fill:#f7e2bf;stroke:#000;stroke-miterlimit:10;stroke-width:0.5px"/><path d="M10.09,16.13a4.89,4.89,0,0,0-.24,1.52c0,1.94,1.11,3.51,2.48,3.51a1.78,1.78,0,0,0,.84-.22,5.8,5.8,0,0,0,.51-1.22,1.2,1.2,0,0,1-.64.19c-.87,0-1.58-1-1.58-2.25s.71-2.25,1.58-2.25a1.16,1.16,0,0,1,.63.18,6,6,0,0,0-.54-1.26,1.72,1.72,0,0,0-.8-.2c-.74,0-1.67.45-2.24,2" style="stroke:#000;stroke-miterlimit:10;stroke-width:0.5px"/><path d="M14.63,14.37a3.46,3.46,0,0,0-2.91-2H10.23a3.46,3.46,0,0,1,2.9,2,6,6,0,0,1,.54,1.26,7.31,7.31,0,0,1,.3,2.08,7.1,7.1,0,0,1-.29,2,5.8,5.8,0,0,1-.51,1.22,3.48,3.48,0,0,1-2.94,2h1.49a3.67,3.67,0,0,0,3.14-2.44,7,7,0,0,0,.59-2.87A6.64,6.64,0,0,0,14.63,14.37Z" style="fill:#f7e2bf;stroke:#000;stroke-miterlimit:10;stroke-width:0.5px"/><path d="M11.46,17.66c0,1.24.71,2.25,1.58,2.25a1.2,1.2,0,0,0,.64-.19,7.1,7.1,0,0,0,.29-2,7.31,7.31,0,0,0-.3-2.08,1.16,1.16,0,0,0-.63-.18C12.17,15.41,11.46,16.42,11.46,17.66Z" style="fill:#fff9e7;stroke:#000;stroke-miterlimit:10;stroke-width:0.5px"/><rect x="20.27" y="9.89" width="0.39" height="2.53"/><path d="M23,23.85H20.47l-1,7.28a.4.4,0,0,0,0,.19.39.39,0,0,0,.36.26h2.4a.39.39,0,0,0,.38-.34l1.06-7.39Z" style="fill:#f7e2bf;stroke:#000;stroke-miterlimit:10;stroke-width:0.5px"/><circle cx="23.62" cy="13.32" r="0.49"/><circle cx="23.62" cy="15.16" r="0.49"/><circle cx="23.62" cy="17" r="0.49"/><rect x="26.92" y="15.52" width="2.71" height="0.35" rx="0.17" ry="0.17"/><rect x="29.91" y="15.52" width="1.02" height="0.35" rx="0.17" ry="0.17"/></g></g></svg>